name ../VV_Laxity/vv_60.mot
datacolumns  10
datarows 29
range   21.00000000 21.28000000
cursor 1.0 1.0 0.0
keys m_key
wrap
enforce_loops no
enforce_constraints no
calc_derivatives -1.000000
event_color 0.000000 0.000000 0.000000
endheader
            time femur_r_force_vx femur_r_force_vy femur_r_force_vz femur_r_force_px femur_r_force_py femur_r_force_pz femur_r_torque_x femur_r_torque_y femur_r_torque_z 
     21.00000000       0.00000000       0.00000000       0.00000000      -0.06140863      -0.48102942       0.00000000       4.40540514      -7.63038553       0.00000000 
     21.01000000       0.00000000       0.00000000       0.00000000      -0.06140863      -0.48102942       0.00000000       4.41414363      -7.64552103       0.00000000 
     21.02000000       0.00000000       0.00000000       0.00000000      -0.06140863      -0.48102942       0.00000000       4.42282596      -7.66055927       0.00000000 
     21.03000000       0.00000000       0.00000000       0.00000000      -0.06140863      -0.48102942       0.00000000       4.43145187      -7.67549980       0.00000000 
     21.04000000       0.00000000       0.00000000       0.00000000      -0.06140863      -0.48102942       0.00000000       4.44002112      -7.69034217       0.00000000 
     21.05000000       0.00000000       0.00000000       0.00000000      -0.06140863      -0.48102942       0.00000000       4.44853346      -7.70508596       0.00000000 
     21.06000000       0.00000000       0.00000000       0.00000000      -0.06140863      -0.48102942       0.00000000       4.45698862      -7.71973074       0.00000000 
     21.07000000       0.00000000       0.00000000       0.00000000      -0.06140863      -0.48102942       0.00000000       4.46538637      -7.73427607       0.00000000 
     21.08000000       0.00000000       0.00000000       0.00000000      -0.06140863      -0.48102942       0.00000000       4.47372645      -7.74872152       0.00000000 
     21.09000000       0.00000000       0.00000000       0.00000000      -0.06140863      -0.48102942       0.00000000       4.48200863      -7.76306667       0.00000000 
     21.10000000       0.00000000       0.00000000       0.00000000      -0.06140863      -0.48102942       0.00000000       4.49023266      -7.77731111       0.00000000 
     21.11000000       0.00000000       0.00000000       0.00000000      -0.06140863      -0.48102942       0.00000000       4.49839830      -7.79145441       0.00000000 
     21.12000000       0.00000000       0.00000000       0.00000000      -0.06140863      -0.48102942       0.00000000       4.50650531      -7.80549616       0.00000000 
     21.13000000       0.00000000       0.00000000       0.00000000      -0.06140863      -0.48102942       0.00000000       4.51455345      -7.81943595       0.00000000 
     21.14000000       0.00000000       0.00000000       0.00000000      -0.06140863      -0.48102942       0.00000000       4.52254249      -7.83327337       0.00000000 
     21.15000000       0.00000000       0.00000000       0.00000000      -0.06140863      -0.48102942       0.00000000       4.53047218      -7.84700800       0.00000000 
     21.16000000       0.00000000       0.00000000       0.00000000      -0.06140863      -0.48102942       0.00000000       4.53834231      -7.86063946       0.00000000 
     21.17000000       0.00000000       0.00000000       0.00000000      -0.06140863      -0.48102942       0.00000000       4.54615263      -7.87416733       0.00000000 
     21.18000000       0.00000000       0.00000000       0.00000000      -0.06140863      -0.48102942       0.00000000       4.55390292      -7.88759123       0.00000000 
     21.19000000       0.00000000       0.00000000       0.00000000      -0.06140863      -0.48102942       0.00000000       4.56159295      -7.90091075       0.00000000 
     21.20000000       0.00000000       0.00000000       0.00000000      -0.06140863      -0.48102942       0.00000000       4.56922250      -7.91412551       0.00000000 
     21.21000000       0.00000000       0.00000000       0.00000000      -0.06140863      -0.48102942       0.00000000       4.57679133      -7.92723512       0.00000000 
     21.22000000       0.00000000       0.00000000       0.00000000      -0.06140863      -0.48102942       0.00000000       4.58429924      -7.94023920       0.00000000 
     21.23000000       0.00000000       0.00000000       0.00000000      -0.06140863      -0.48102942       0.00000000       4.59174600      -7.95313736       0.00000000 
     21.24000000       0.00000000       0.00000000       0.00000000      -0.06140863      -0.48102942       0.00000000       4.59913138      -7.96592923       0.00000000 
     21.25000000       0.00000000       0.00000000       0.00000000      -0.06140863      -0.48102942       0.00000000       4.60645518      -7.97861442       0.00000000 
     21.26000000       0.00000000       0.00000000       0.00000000      -0.06140863      -0.48102942       0.00000000       4.61371718      -7.99119257       0.00000000 
     21.27000000       0.00000000       0.00000000       0.00000000      -0.06140863      -0.48102942       0.00000000       4.62091717      -8.00366332       0.00000000 
     21.28000000       0.00000000       0.00000000       0.00000000      -0.06140863      -0.48102942       0.00000000       4.62805493      -8.01602628       0.00000000 
